# xmcd
#
# Track frame offsets:
#	150
#	13104
#	22920
#	32716
#	41089
#	53014
#	62524
#	73831
#	85473
#	96579
#	106414
#	115241
#	123338
#	133861
#	142763
#	154511
#	164986
#	175619
#	188277
#	199857
#	208983
#	222857
#	233218
#	247174
#
# Disc length: 3441 seconds
#
# Revision: 1
# Processed by: cddbd v1.5PL3 Copyright (c) Steve Scherf et al.
# Submitted via: audiograbber 1.82.02
#
DISCID=5c0d6f18
DTITLE=The Browns - Sweet Sound By The Browns/Grand Ole Opry Favorites
DYEAR=2000
DGENRE=Country
TTITLE0=The Three Bells (Les Trios Cloches)
TTITLE1=Indian Love Call
TTITLE2=Only The Lonely
TTITLE3=Dream On (She'll Break Your Heart)
TTITLE4=Blues Stay Away From Me
TTITLE5=Where Did The Sunshine Go
TTITLE6=Unchained Melody
TTITLE7=I Still Do
TTITLE8=Love Me Tender
TTITLE9=We Should Be Together
TTITLE10=Put On An Old Pair Of Shoes
TTITLE11=Hi De Ank Tum
TTITLE12=Don't Let The Stars Get In Your Eyes
TTITLE13=Sugarfoot Rag
TTITLE14=The Grey Speckled Bird
TTITLE15=You Nearly Lose Your Mind
TTITLE16=Mansion On The Hill
TTITLE17=Tragic Romance
TTITLE18=Fair And Tender Ladies
TTITLE19=The Rhumba Boogie
TTITLE20=Mommy Please Stay Home With Me
TTITLE21=Looking Back To See
TTITLE22=Four Walls
TTITLE23=Wondering
EXTD=2 Original Albums On 1 CD
EXTT0=
EXTT1=
EXTT2=
EXTT3=
EXTT4=
EXTT5=
EXTT6=
EXTT7=
EXTT8=
EXTT9=
EXTT10=
EXTT11=
EXTT12=
EXTT13=
EXTT14=
EXTT15=
EXTT16=
EXTT17=
EXTT18=
EXTT19=
EXTT20=
EXTT21=
EXTT22=
EXTT23=
PLAYORDER=
